HIERARCHY
ROOT Hips
{
	OFFSET 0.000000 0.000000 0.000000
	CHANNELS 6 Xposition Yposition Zposition Zrotation Yrotation Xrotation 
	JOINT LHipJoint
	{
		OFFSET 0.000000 0.000000 0.000000
		CHANNELS 3 Zrotation Yrotation Xrotation
		JOINT LeftUpLeg
		{
			OFFSET 1.363060 -1.794630 0.839290
			CHANNELS 3 Zrotation Yrotation Xrotation
			JOINT LeftLeg
			{
				OFFSET 2.448110 -6.726130 0.000000
				CHANNELS 3 Zrotation Yrotation Xrotation
				JOINT LeftFoot
				{
					OFFSET 2.562200 -7.039590 0.000000
					CHANNELS 3 Zrotation Yrotation Xrotation
					JOINT LeftToeBase
					{
						OFFSET 0.157640 -0.433110 2.322550
						CHANNELS 3 Zrotation Yrotation Xrotation
						End Site
						{
							OFFSET 0.000000 0.000000 0.000000
						}
					}
				}
			}
		}
	}
	JOINT RHipJoint
	{
		OFFSET 0.000000 0.000000 0.000000
		CHANNELS 3 Zrotation Yrotation Xrotation
		JOINT RightUpLeg
		{
			OFFSET -1.305520 -1.794630 0.839290
			CHANNELS 3 Zrotation Yrotation Xrotation
			JOINT RightLeg
			{
				OFFSET -2.542530 -6.985550 0.000000
				CHANNELS 3 Zrotation Yrotation Xrotation
				JOINT RightFoot
				{
					OFFSET -2.568260 -7.056230 0.000000
					CHANNELS 3 Zrotation Yrotation Xrotation
					JOINT RightToeBase
					{
						OFFSET -0.164730 -0.452590 2.363150
						CHANNELS 3 Zrotation Yrotation Xrotation
						End Site
						{
							OFFSET 0.000000 0.000000 0.000000
						}
					}
				}
			}
		}
	}
	JOINT LowerBack
	{
		OFFSET 0.000000 0.000000 0.000000
		CHANNELS 3 Zrotation Yrotation Xrotation
		JOINT Spine
		{
			OFFSET 0.028270 2.035590 -0.193380
			CHANNELS 3 Zrotation Yrotation Xrotation
			JOINT Spine1
			{
				OFFSET 0.056720 2.048850 -0.042750
				CHANNELS 3 Zrotation Yrotation Xrotation
				JOINT Neck
				{
					OFFSET 0.000000 0.000000 0.000000
					CHANNELS 3 Zrotation Yrotation Xrotation
					JOINT Neck1
					{
						OFFSET -0.054170 1.746240 0.172020
						CHANNELS 3 Zrotation Yrotation Xrotation
						JOINT Head
						{
							OFFSET 0.104070 1.761360 -0.123970
							CHANNELS 3 Zrotation Yrotation Xrotation
							End Site
							{
								OFFSET 0.000000 0.000000 0.000000
							}
						}
					}
				}
				JOINT LeftShoulder
				{
					OFFSET 0.000000 0.000000 0.000000
					CHANNELS 3 Zrotation Yrotation Xrotation
					JOINT LeftArm
					{
						OFFSET 3.362410 1.200890 -0.311210
						CHANNELS 3 Zrotation Yrotation Xrotation
						JOINT LeftForeArm
						{
							OFFSET 4.983000 -0.000000 -0.000000
							CHANNELS 3 Zrotation Yrotation Xrotation
							JOINT LeftHand
							{
								OFFSET 3.483560 -0.000000 -0.000000
								CHANNELS 3 Zrotation Yrotation Xrotation
								JOINT LeftFingerBase
								{
									OFFSET 0.000000 0.000000 0.000000
									CHANNELS 3 Zrotation Yrotation Xrotation
									JOINT LeftHandIndex1
									{
										OFFSET 0.715260 -0.000000 -0.000000
										CHANNELS 3 Zrotation Yrotation Xrotation
										End Site
										{
											OFFSET 0.000000 0.000000 0.000000
										}
									}
								}
								JOINT LThumb
								{
									OFFSET 0.000000 0.000000 0.000000
									CHANNELS 3 Zrotation Yrotation Xrotation
									End Site
									{
										OFFSET 0.000000 0.000000 0.000000
									}
								}
							}
						}
					}
				}
				JOINT RightShoulder
				{
					OFFSET 0.000000 0.000000 0.000000
					CHANNELS 3 Zrotation Yrotation Xrotation
					JOINT RightArm
					{
						OFFSET -3.136600 1.374050 -0.404650
						CHANNELS 3 Zrotation Yrotation Xrotation
						JOINT RightForeArm
						{
							OFFSET -5.241900 -0.000000 -0.000000
							CHANNELS 3 Zrotation Yrotation Xrotation
							JOINT RightHand
							{
								OFFSET -3.444170 -0.000000 -0.000000
								CHANNELS 3 Zrotation Yrotation Xrotation
								JOINT RightFingerBase
								{
									OFFSET 0.000000 0.000000 0.000000
									CHANNELS 3 Zrotation Yrotation Xrotation
									JOINT RightHandIndex1
									{
										OFFSET -0.622530 -0.000000 -0.000000
										CHANNELS 3 Zrotation Yrotation Xrotation
										End Site
										{
											OFFSET 0.000000 0.000000 0.000000
										}
									}
								}
								JOINT RThumb
								{
									OFFSET 0.000000 0.000000 0.000000
									CHANNELS 3 Zrotation Yrotation Xrotation
									End Site
									{
										OFFSET 0.000000 0.000000 0.000000
									}
								}
							}
						}
					}
				}
			}
		}
	}
}
MOTION
Frames: 8
Frame Time: 0.033333
2.549960 17.689619 -22.393955 1.546012 -11.501334 9.538195 -16.218596 0.228485 1.687631 -0.371990 0.360829 -5.460520 6.088724 -24.085730 17.180871 1.345435 5.287089 11.981392 4.029763 0.553605 -57.381007 10.736673 2.878538 2.920625 3.010163 16.197930 -33.060291 -2.887027 -4.854952 23.173731 -2.155770 -2.177400 17.976842 -0.129519 -0.131567 -33.672666 6.510983 -9.503733 15.599026 0.528395 0.665500 -0.256486 -5.757319 -1.577610 0.956623 12.110985 3.136428 7.976353 -5.214879 -0.447505 3.569288 -0.135668 0.021500 0.040025 -15.175056 -13.117897 4.440695 -65.953501 -14.151765 10.929025 -5.046727 -12.794677 -1.313057 4.142604 -1.677472 -0.015272 -0.208632 0.107635 -0.039629 -0.135326 -0.006310 -0.019614 -0.003281 0.081259 0.105781 18.029425 2.194994 -6.284933 64.888508 9.121888 -6.953351 4.520937 9.901404 0.136779 3.215869 10.990367 0.333133 0.010791 0.288543 0.005760 0.060023 0.053385 -0.129213 0.090728 0.029802 -0.015370 
2.443206 17.800421 -21.739302 2.598911 -9.455906 13.764266 -15.535977 0.477447 1.018192 -1.689337 3.221965 -7.423612 3.948623 -20.178042 11.139432 3.283107 8.826308 18.052986 3.839099 0.477697 -57.324539 8.966604 4.725974 2.398088 2.207104 15.445678 -33.957513 -3.306402 -6.548364 21.610228 -1.471734 -2.929615 14.909703 -0.738585 0.045842 -32.308556 5.359434 -9.118655 11.886678 1.268078 0.076756 -0.330824 -6.881319 -2.874203 1.586191 12.007297 3.589130 6.735246 -5.074689 -0.450854 3.192383 -0.122645 0.002342 0.021452 -14.952579 -11.931295 3.221662 -63.998208 -15.930014 12.148660 -4.847393 -13.158715 -1.560998 3.906019 -2.124570 -0.038946 -0.343733 0.088097 -0.050808 -0.136754 -0.011606 -0.025828 -0.004463 0.083073 0.102070 20.004444 2.865253 -6.593232 64.172487 10.895772 -9.922788 4.065110 7.117552 -0.765991 3.395099 10.353166 0.338836 0.104166 0.318541 -0.001963 0.057667 0.052572 -0.135002 0.079992 0.017993 -0.013381 
2.301447 17.935047 -21.088760 -0.134446 -8.088410 15.084156 -13.961093 -0.488955 3.146320 0.941513 2.582992 -7.933803 2.541983 -16.601762 10.136836 2.626732 9.646480 21.280941 4.063690 0.448387 -55.788438 11.397748 4.274377 1.369053 3.480217 14.502954 -31.238352 -2.363315 -5.928718 21.103913 -0.855786 -3.398287 13.738305 -1.022755 0.138456 -31.482060 6.705823 -8.658925 10.483406 1.474304 -0.557393 0.154162 -7.916177 -3.209965 0.897064 12.444744 3.730805 6.266556 -5.048948 -0.394083 2.928468 -0.111125 0.008394 0.015728 -14.844731 -10.373965 4.011217 -62.844558 -17.887373 11.009743 -3.927688 -12.496447 -1.075855 3.573039 -1.705496 -0.022809 -0.308379 0.075509 -0.069709 -0.137346 -0.017229 -0.032971 -0.019759 0.082386 0.095816 22.805761 2.806739 -5.535643 63.566337 13.510364 -11.624527 4.418078 5.442855 -0.860829 3.358030 9.825609 0.315552 0.112725 0.339788 -0.000977 0.048351 0.043240 -0.130252 0.068720 0.015591 -0.005395 
2.140377 18.074688 -20.466654 -2.279785 -9.385164 16.103460 -12.808308 -2.846374 4.194080 2.345555 0.167699 -10.390223 2.834454 -17.680744 18.277648 -0.352468 9.575291 29.012585 4.361358 0.445931 -53.186577 11.883677 5.965231 2.803114 4.893423 13.181381 -30.425616 -0.971638 -6.557619 18.952625 -0.481318 -2.007672 14.326181 -0.979001 0.158085 -32.835830 8.565772 -8.994775 11.157324 -0.538452 -1.467450 -1.628169 -7.366940 -2.265673 1.339640 12.612980 4.265620 5.080246 -4.772303 -0.389107 2.386834 -0.100810 0.025257 0.013336 -14.166117 -6.807322 3.650661 -63.461438 -18.145981 10.052148 -3.468237 -11.344701 -1.407330 3.354499 -1.109127 -0.005955 -0.326125 0.088319 -0.077504 -0.135978 -0.015249 -0.030029 -0.024343 0.094412 0.098494 24.046672 4.821622 -2.882887 64.161633 14.975599 -10.478019 3.835556 4.677829 -1.163863 2.604410 9.695408 0.251723 0.036295 0.285131 -0.007202 0.042580 0.046568 -0.131492 0.070828 0.033865 -0.009750 
1.983481 18.206469 -19.894283 -3.070889 -10.450810 18.218735 -13.573895 -2.309270 3.841310 3.803669 -1.995052 -18.010191 1.302626 -16.976923 27.961095 -0.511049 14.151916 36.127169 4.321663 0.291225 -48.763709 12.075233 5.186912 1.742140 5.783261 11.986907 -29.287876 1.529659 -4.798885 18.163115 -0.661059 -1.166455 15.488688 -0.873070 0.230125 -33.439460 7.964858 -5.251943 9.368669 0.376007 -1.474772 -0.777747 -7.027303 -2.667206 1.520935 12.616975 5.005670 4.570031 -4.912359 -0.387119 2.397342 -0.095829 0.056755 0.012952 -12.861021 -6.919370 4.127205 -65.840345 -17.846521 9.310792 -2.767052 -10.570887 -1.242607 3.104324 -0.608612 0.009928 -0.220688 0.086696 -0.077973 -0.130831 -0.023104 -0.024600 -0.026875 0.102066 0.098189 24.341881 5.472807 -1.872023 63.586704 16.269645 -9.368036 3.359902 3.956541 -1.462149 1.940320 9.822150 0.210520 -0.000564 0.211295 -0.014944 0.045728 0.044429 -0.133897 0.076856 0.041993 -0.012863 
1.834067 18.322845 -19.373028 -4.649422 -11.239376 21.344346 -14.273058 -1.225516 3.267405 5.036215 0.015137 -30.126638 -1.843350 -16.896841 42.345300 0.965432 16.941722 31.977434 3.939688 0.137616 -44.220494 12.951405 5.450027 1.076158 6.035002 12.331458 -28.752937 2.687888 -4.093119 16.458913 -1.156270 -0.725124 16.506959 -0.664828 0.256138 -34.510586 8.972580 -2.422720 8.027186 0.685262 -2.475292 -0.458459 -7.180405 -1.650898 1.355640 12.832830 5.759998 4.063647 -4.737117 -0.399238 2.403339 -0.091986 0.069780 0.001607 -12.133429 -6.225279 4.040148 -66.970020 -16.714265 10.545328 -2.409013 -9.736750 -1.637450 3.177775 -0.396493 0.017438 -0.217994 -0.011822 -0.077841 -0.123793 -0.030290 -0.020675 -0.014432 0.111734 0.088155 22.912886 7.862877 -1.864044 65.106856 17.863098 -7.699799 2.717887 3.269335 -1.204936 1.478628 10.156352 0.198927 -0.003360 0.322782 -0.034477 0.043445 0.045739 -0.135687 0.088119 0.055025 -0.013913 
1.684904 18.418383 -18.881475 -3.261706 -10.437579 23.812695 -15.244853 -0.401805 2.476274 4.251012 0.384330 -40.630239 -2.909019 -14.768659 53.126822 2.818263 16.979221 21.826221 3.384201 -0.006990 -38.645610 12.864159 4.481912 -0.530215 5.898980 11.099858 -27.490796 2.811429 -1.786503 14.921342 -1.243359 -1.095491 16.584361 -0.250051 0.164276 -33.915655 7.167241 0.545804 7.536128 0.166180 -1.585255 -1.604457 -6.499134 -2.985904 1.757623 12.800880 6.388944 2.044502 -4.582830 -0.388472 2.002219 -0.090033 0.085194 0.001444 -11.031384 -4.195289 3.874623 -66.036220 -17.970316 11.992982 -3.206154 -11.850957 -1.240506 2.545536 -0.026797 0.034550 -0.190958 -0.056149 -0.086162 -0.119259 -0.042336 -0.025890 -0.021202 0.119590 0.074200 21.401726 7.505467 -0.679267 66.047079 20.472438 -6.535281 3.661629 4.259667 -0.887802 2.004344 10.108602 0.258533 0.050703 0.334623 -0.035943 0.040398 0.037571 -0.140412 0.073783 0.052382 -0.004795 
1.537606 18.488647 -18.392570 -2.452825 -9.049364 24.486699 -15.423683 -0.159482 1.854485 3.341934 -0.635774 -49.721181 -3.550150 -12.039674 64.542518 3.761628 17.053905 13.421703 2.769958 -0.078589 -34.255586 14.296200 2.854287 -0.760945 4.495067 10.151409 -25.985565 3.688952 0.077346 13.759961 -1.134852 -1.860969 16.333249 0.160419 0.004747 -33.939649 6.049942 2.551313 7.173293 0.126118 -1.172697 -1.836623 -6.587117 -1.383111 2.058936 12.062367 6.786553 1.281511 -4.658278 -0.379423 1.768521 -0.090720 0.096667 0.004050 -10.287045 -2.819965 3.768472 -64.421089 -18.461169 12.193240 -3.931282 -14.809430 -1.050361 1.898054 0.659397 0.064148 -0.112155 -0.044653 -0.091511 -0.108522 -0.060283 -0.032702 -0.020684 0.123068 0.062485 19.723079 6.041238 -0.863114 67.175631 22.973972 -5.340755 4.012645 5.772450 -0.729363 2.465309 10.144288 0.301753 0.021062 0.323098 -0.036329 0.040647 0.032040 -0.130250 0.066320 0.058570 0.002137 
